<svg width="18" height="18" fill="none" xmlns="http://www.w3.org/2000/svg"><path fill-rule="evenodd" clip-rule="evenodd" d="M10.32 11.63a10.56 10.56 0 0 1-3.95-3.95L7.6 6.8a1 1 0 0 0 .3-1.3A11.42 11.42 0 0 1 6.54.92a1 1 0 0 0-1-.92H1.08a1 1 0 0 0-1 .9A15.51 15.51 0 0 0 17.1 17.92a1 1 0 0 0 .9-1v-4.46a1 1 0 0 0-.92-1c-1.6-.12-3.17-.59-4.58-1.36a1 1 0 0 0-1.3.3l-.88 1.23ZM5.74 5.67l-1.9 1.36c.22.54.47 1.07.75 1.58l.04.06a12.56 12.56 0 0 0 4.7 4.7l.06.04c.5.28 1.04.53 1.58.75l1.36-1.9c1.17.54 2.4.9 3.67 1.1v2.63l-.5.01A13.5 13.5 0 0 1 2.01 2h2.64c.19 1.27.55 2.5 1.1 3.67Z" fill="#F1B301"/></svg>